<?xml version="1.0" encoding="UTF-8" standalone="no"?>
<!DOCTYPE svg PUBLIC "-//W3C//DTD SVG 1.1//EN"
 "http://www.w3.org/Graphics/SVG/1.1/DTD/svg11.dtd">
<!-- Generated by graphviz version 2.29.20121221.0545 (20121221.0545)
 -->
<!-- Title: G Pages: 1 -->
<svg width="922pt" height="248pt"
 viewBox="0.00 0.00 922.00 248.00" xmlns="http://www.w3.org/2000/svg" xmlns:xlink="http://www.w3.org/1999/xlink">
<g id="graph0" class="graph" transform="scale(1 1) rotate(0) translate(4 244)">
<title>G</title>
<polygon fill="white" stroke="white" points="-4,5 -4,-244 919,-244 919,5 -4,5"/>
<!-- START -->
<g id="node1" class="node"><title>START</title>
</g>
<!-- learn -->
<g id="node2" class="node"><title>learn</title>
<ellipse fill="none" stroke="black" cx="145" cy="-168" rx="28.6953" ry="18"/>
<text text-anchor="middle" x="145" y="-164.3" font-family="Times,serif" font-size="14.00">learn</text>
</g>
<!-- START&#45;&gt;learn -->
<g id="edge1" class="edge"><title>START&#45;&gt;learn</title>
<path fill="none" stroke="black" d="M54.0327,-168C69.3002,-168 88.8655,-168 105.849,-168"/>
<polygon fill="black" stroke="black" points="106.028,-171.5 116.028,-168 106.028,-164.5 106.028,-171.5"/>
<text text-anchor="middle" x="85" y="-171.8" font-family="Times,serif" font-size="14.00">train</text>
</g>
<!-- predict -->
<g id="node7" class="node"><title>predict</title>
<ellipse fill="none" stroke="black" cx="599" cy="-174" rx="35.9954" ry="18"/>
<text text-anchor="middle" x="599" y="-170.3" font-family="Times,serif" font-size="14.00">predict</text>
</g>
<!-- learn&#45;&gt;predict -->
<g id="edge2" class="edge"><title>learn&#45;&gt;predict</title>
<path fill="none" stroke="black" d="M173.594,-168.366C252.084,-169.408 476.508,-172.387 563.219,-173.538"/>
<text text-anchor="middle" x="302" y="-173.8" font-family="Times,serif" font-size="14.00">model</text>
</g>
<!-- test -->
<g id="node11" class="node"><title>test</title>
<text text-anchor="middle" x="239" y="-136.3" font-family="Times,serif" font-size="14.00">test</text>
</g>
<!-- learn&#45;&gt;test -->
<!-- devtest -->
<g id="node3" class="node"><title>devtest</title>
<polygon fill="none" stroke="black" points="411,-152 338.273,-134 411,-116 483.727,-134 411,-152"/>
<text text-anchor="middle" x="411" y="-130.3" font-family="Times,serif" font-size="14.00">DevOrTest</text>
</g>
<!-- devtest&#45;&gt;predict -->
<g id="edge8" class="edge"><title>devtest&#45;&gt;predict</title>
<path fill="none" stroke="black" d="M450.539,-142.288C481.264,-148.896 524.235,-158.136 555.866,-164.939"/>
<polygon fill="black" stroke="black" points="555.195,-168.375 565.708,-167.055 556.667,-161.531 555.195,-168.375"/>
<text text-anchor="middle" x="508" y="-158.8" font-family="Times,serif" font-size="14.00">in</text>
</g>
<!-- eval -->
<g id="node9" class="node"><title>eval</title>
<ellipse fill="none" stroke="black" cx="761" cy="-123" rx="27" ry="18"/>
<text text-anchor="middle" x="761" y="-119.3" font-family="Times,serif" font-size="14.00">eval</text>
</g>
<!-- devtest&#45;&gt;eval -->
<g id="edge10" class="edge"><title>devtest&#45;&gt;eval</title>
<path fill="none" stroke="black" d="M475.829,-131.982C548.609,-129.682 665.077,-126 723.738,-124.146"/>
<polygon fill="black" stroke="black" points="724.11,-127.636 733.995,-123.822 723.889,-120.64 724.11,-127.636"/>
<text text-anchor="middle" x="599" y="-134.8" font-family="Times,serif" font-size="14.00">gold</text>
</g>
<!-- t1 -->
<g id="node4" class="node"><title>t1</title>
<text text-anchor="middle" x="411" y="-68.3" font-family="Times,serif" font-size="14.00" fill="red">0.5</text>
</g>
<!-- thresh -->
<g id="node6" class="node"><title>thresh</title>
<polygon fill="none" stroke="black" points="599,-87 531.803,-69 599,-51 666.197,-69 599,-87"/>
<text text-anchor="middle" x="599" y="-65.3" font-family="Times,serif" font-size="14.00">Threshold</text>
</g>
<!-- t1&#45;&gt;thresh -->
<g id="edge6" class="edge"><title>t1&#45;&gt;thresh</title>
<path fill="none" stroke="red" d="M438.255,-71.5765C460.837,-71.2123 494.516,-70.6691 525.136,-70.1752"/>
<polygon fill="red" stroke="red" points="525.44,-73.6709 535.382,-70.01 525.327,-66.6718 525.44,-73.6709"/>
</g>
<!-- t2 -->
<g id="node5" class="node"><title>t2</title>
<text text-anchor="middle" x="411" y="-14.3" font-family="Times,serif" font-size="14.00" fill="blue">0.75</text>
</g>
<!-- t2&#45;&gt;thresh -->
<g id="edge7" class="edge"><title>t2&#45;&gt;thresh</title>
<path fill="none" stroke="blue" d="M438.255,-25.1989C468.644,-33.5313 519.129,-47.374 555.211,-57.2676"/>
<polygon fill="blue" stroke="blue" points="554.408,-60.6766 564.978,-59.9456 556.259,-53.9258 554.408,-60.6766"/>
</g>
<!-- thresh&#45;&gt;eval -->
<g id="edge11" class="edge"><title>thresh&#45;&gt;eval</title>
<path fill="none" stroke="black" d="M644.964,-74.71C666.965,-78.4913 693.491,-84.5494 716,-94 722.2,-96.6031 728.467,-100.102 734.251,-103.768"/>
<polygon fill="black" stroke="black" points="732.613,-106.884 742.864,-109.561 736.52,-101.076 732.613,-106.884"/>
<text text-anchor="middle" x="700" y="-97.8" font-family="Times,serif" font-size="14.00">T</text>
</g>
<!-- predict&#45;&gt;eval -->
<g id="edge9" class="edge"><title>predict&#45;&gt;eval</title>
<path fill="none" stroke="black" d="M629.72,-164.527C657.206,-155.766 698.008,-142.76 726.608,-133.644"/>
<polygon fill="black" stroke="black" points="727.709,-136.966 736.173,-130.595 725.583,-130.297 727.709,-136.966"/>
<text text-anchor="middle" x="700" y="-150.8" font-family="Times,serif" font-size="14.00">preds</text>
</g>
<!-- preds -->
<g id="node8" class="node"><title>preds</title>
</g>
<!-- STOP -->
<g id="node12" class="node"><title>STOP</title>
</g>
<!-- eval&#45;&gt;STOP -->
<g id="edge12" class="edge"><title>eval&#45;&gt;STOP</title>
<path fill="none" stroke="black" d="M788.297,-123C806.135,-123 829.953,-123 849.607,-123"/>
<polygon fill="black" stroke="black" points="849.741,-126.5 859.741,-123 849.741,-119.5 849.741,-126.5"/>
<text text-anchor="middle" x="824" y="-126.8" font-family="Times,serif" font-size="14.00">scores</text>
</g>
<!-- dev -->
<g id="node10" class="node"><title>dev</title>
<text text-anchor="middle" x="239" y="-82.3" font-family="Times,serif" font-size="14.00">dev</text>
</g>
<!-- dev&#45;&gt;devtest -->
<g id="edge5" class="edge"><title>dev&#45;&gt;devtest</title>
<path fill="none" stroke="black" stroke-dasharray="5,2" d="M266.19,-93.3948C292.915,-100.941 334.854,-112.782 366.56,-121.735"/>
<polygon fill="black" stroke="black" points="365.888,-125.182 376.463,-124.531 367.79,-118.445 365.888,-125.182"/>
</g>
<!-- test&#45;&gt;devtest -->
<g id="edge4" class="edge"><title>test&#45;&gt;devtest</title>
<path fill="none" stroke="black" stroke-width="2" d="M266.19,-139.076C285.099,-138.408 311.625,-137.472 336.754,-136.585"/>
<polygon fill="black" stroke="black" points="337.167,-140.073 347.037,-136.222 336.92,-133.077 337.167,-140.073"/>
</g>
</g>
</svg>
