<?xml version="1.0" encoding="UTF-8" standalone="no"?>
<!DOCTYPE svg PUBLIC "-//W3C//DTD SVG 1.1//EN"
 "http://www.w3.org/Graphics/SVG/1.1/DTD/svg11.dtd">
<!-- Generated by graphviz version 2.29.20121221.0545 (20121221.0545)
 -->
<!-- Title: G Pages: 1 -->
<svg width="736pt" height="166pt"
 viewBox="0.00 0.00 736.00 166.00" xmlns="http://www.w3.org/2000/svg" xmlns:xlink="http://www.w3.org/1999/xlink">
<g id="graph0" class="graph" transform="scale(1 1) rotate(0) translate(4 162)">
<title>G</title>
<polygon fill="white" stroke="white" points="-4,5 -4,-162 733,-162 733,5 -4,5"/>
<!-- START -->
<g id="node1" class="node"><title>START</title>
</g>
<!-- learn -->
<g id="node2" class="node"><title>learn</title>
<ellipse fill="none" stroke="black" cx="145" cy="-75" rx="28.6953" ry="18"/>
<text text-anchor="middle" x="145" y="-71.3" font-family="Times,serif" font-size="14.00">learn</text>
</g>
<!-- START&#45;&gt;learn -->
<g id="edge1" class="edge"><title>START&#45;&gt;learn</title>
<path fill="none" stroke="black" d="M54.0327,-75C69.3002,-75 88.8655,-75 105.849,-75"/>
<polygon fill="black" stroke="black" points="106.028,-78.5001 116.028,-75 106.028,-71.5001 106.028,-78.5001"/>
<text text-anchor="middle" x="85" y="-78.8" font-family="Times,serif" font-size="14.00">train</text>
</g>
<!-- test -->
<g id="node8" class="node"><title>test</title>
<text text-anchor="middle" x="239" y="-31.3" font-family="Times,serif" font-size="14.00">test</text>
</g>
<!-- learn&#45;&gt;test -->
<g id="edge4" class="edge"><title>learn&#45;&gt;test</title>
<path fill="none" stroke="none" d="M169.215,-64.9063C179.261,-60.5386 191.246,-55.3277 202.377,-50.4885"/>
<polygon fill="none" stroke="none" points="204.092,-53.5591 211.867,-46.3621 201.301,-47.1397 204.092,-53.5591"/>
</g>
<!-- predict -->
<g id="node4" class="node"><title>predict</title>
<ellipse fill="none" stroke="black" cx="340" cy="-89" rx="35.9954" ry="18"/>
<text text-anchor="middle" x="340" y="-85.3" font-family="Times,serif" font-size="14.00">predict</text>
</g>
<!-- learn&#45;&gt;predict -->
<g id="edge5" class="edge"><title>learn&#45;&gt;predict</title>
<path fill="none" stroke="black" d="M173.652,-77.0059C205.188,-79.2934 257.191,-83.0657 294.461,-85.7692"/>
<polygon fill="black" stroke="black" points="294.326,-89.2685 304.553,-86.5012 294.832,-82.2868 294.326,-89.2685"/>
<text text-anchor="middle" x="239" y="-86.8" font-family="Times,serif" font-size="14.00">model</text>
</g>
<!-- DUMMY -->
<g id="node3" class="node"><title>DUMMY</title>
</g>
<!-- DUMMY&#45;&gt;predict -->
<g id="edge2" class="edge"><title>DUMMY&#45;&gt;predict</title>
<path fill="none" stroke="none" d="M266.011,-126.6C277.997,-120.426 292.375,-113.019 305.189,-106.418"/>
<polygon fill="none" stroke="none" points="306.899,-109.474 314.186,-101.783 303.693,-103.251 306.899,-109.474"/>
</g>
<!-- eval1 -->
<g id="node6" class="node"><title>eval1</title>
<ellipse fill="none" stroke="red" cx="543" cy="-89" rx="53.8905" ry="18"/>
<text text-anchor="middle" x="543" y="-85.3" font-family="Times,serif" font-size="14.00" fill="red">eval(T=0.5)</text>
</g>
<!-- DUMMY&#45;&gt;eval1 -->
<g id="edge3" class="edge"><title>DUMMY&#45;&gt;eval1</title>
<path fill="none" stroke="none" d="M266.221,-138.28C305.56,-135.399 382.066,-128.633 446,-116 461.744,-112.889 478.673,-108.491 493.865,-104.146"/>
<polygon fill="none" stroke="none" points="494.95,-107.476 503.567,-101.312 492.987,-100.756 494.95,-107.476"/>
</g>
<!-- preds -->
<g id="node5" class="node"><title>preds</title>
</g>
<!-- predict&#45;&gt;preds -->
<g id="edge7" class="edge"><title>predict&#45;&gt;preds</title>
<path fill="none" stroke="black" d="M375.871,-89C404.818,-89 441.618,-89 443.889,-89"/>
<text text-anchor="middle" x="410" y="-92.8" font-family="Times,serif" font-size="14.00">preds</text>
</g>
<!-- preds&#45;&gt;eval1 -->
<g id="edge8" class="edge"><title>preds&#45;&gt;eval1</title>
<path fill="none" stroke="red" d="M446.07,-89C447.18,-89 461.444,-89 478.649,-89"/>
<polygon fill="red" stroke="red" points="479.042,-92.5001 489.042,-89 479.042,-85.5001 479.042,-92.5001"/>
</g>
<!-- eval2 -->
<g id="node7" class="node"><title>eval2</title>
<ellipse fill="none" stroke="blue" cx="543" cy="-18" rx="58.4896" ry="18"/>
<text text-anchor="middle" x="543" y="-14.3" font-family="Times,serif" font-size="14.00" fill="blue">eval(T=0.75)</text>
</g>
<!-- preds&#45;&gt;eval2 -->
<g id="edge9" class="edge"><title>preds&#45;&gt;eval2</title>
<path fill="none" stroke="blue" d="M446.07,-88.9485C447.86,-87.6242 483.842,-61.0124 511.215,-40.7681"/>
<polygon fill="blue" stroke="blue" points="513.427,-43.4852 519.386,-34.7249 509.265,-37.8572 513.427,-43.4852"/>
</g>
<!-- STOP1 -->
<g id="node9" class="node"><title>STOP1</title>
</g>
<!-- eval1&#45;&gt;STOP1 -->
<g id="edge12" class="edge"><title>eval1&#45;&gt;STOP1</title>
<path fill="none" stroke="red" d="M597.25,-89C619.097,-89 643.834,-89 663.561,-89"/>
<polygon fill="red" stroke="red" points="663.666,-92.5001 673.666,-89 663.666,-85.5001 663.666,-92.5001"/>
<text text-anchor="middle" x="638" y="-92.8" font-family="Times,serif" font-size="14.00" fill="red">scores</text>
</g>
<!-- STOP2 -->
<g id="node10" class="node"><title>STOP2</title>
</g>
<!-- eval2&#45;&gt;STOP2 -->
<g id="edge13" class="edge"><title>eval2&#45;&gt;STOP2</title>
<path fill="none" stroke="blue" d="M601.645,-18C622.493,-18 645.426,-18 663.9,-18"/>
<polygon fill="blue" stroke="blue" points="663.937,-21.5001 673.937,-18 663.937,-14.5001 663.937,-21.5001"/>
<text text-anchor="middle" x="638" y="-21.8" font-family="Times,serif" font-size="14.00" fill="blue">scores</text>
</g>
<!-- test&#45;&gt;predict -->
<g id="edge6" class="edge"><title>test&#45;&gt;predict</title>
<path fill="none" stroke="black" d="M266.011,-49.1879C278.274,-55.8765 293.04,-63.9308 306.073,-71.0399"/>
<polygon fill="black" stroke="black" points="304.742,-74.3003 315.197,-76.0163 308.094,-68.1551 304.742,-74.3003"/>
</g>
<!-- test&#45;&gt;eval1 -->
<g id="edge10" class="edge"><title>test&#45;&gt;eval1</title>
<path fill="none" stroke="red" d="M266.215,-37.2176C305.548,-40.8189 382.044,-48.8859 446,-62 461.582,-65.1952 478.345,-69.5745 493.434,-73.8765"/>
<polygon fill="red" stroke="red" points="492.498,-77.2495 503.078,-76.6792 494.452,-70.5276 492.498,-77.2495"/>
</g>
<!-- test&#45;&gt;eval2 -->
<g id="edge11" class="edge"><title>test&#45;&gt;eval2</title>
<path fill="none" stroke="blue" d="M266.375,-28.1221C272.146,-26.8657 278.249,-25.7245 284,-25 348.289,-16.9021 422.272,-15.7193 474.483,-16.2231"/>
<polygon fill="blue" stroke="blue" points="474.584,-19.7245 484.626,-16.3448 474.668,-12.725 474.584,-19.7245"/>
</g>
</g>
</svg>
