<?xml version="1.0" encoding="UTF-8" standalone="no"?>
<!DOCTYPE svg PUBLIC "-//W3C//DTD SVG 1.1//EN"
 "http://www.w3.org/Graphics/SVG/1.1/DTD/svg11.dtd">
<!-- Generated by graphviz version 2.29.20121221.0545 (20121221.0545)
 -->
<!-- Title: G Pages: 1 -->
<svg width="574pt" height="100pt"
 viewBox="0.00 0.00 574.00 100.00" xmlns="http://www.w3.org/2000/svg" xmlns:xlink="http://www.w3.org/1999/xlink">
<g id="graph0" class="graph" transform="scale(1 1) rotate(0) translate(4 96)">
<title>G</title>
<polygon fill="white" stroke="white" points="-4,5 -4,-96 571,-96 571,5 -4,5"/>
<!-- START -->
<g id="node1" class="node"><title>START</title>
</g>
<!-- learn -->
<g id="node2" class="node"><title>learn</title>
<ellipse fill="none" stroke="black" cx="145" cy="-74" rx="28.6953" ry="18"/>
<text text-anchor="middle" x="145" y="-70.3" font-family="Times,serif" font-size="14.00">learn</text>
</g>
<!-- START&#45;&gt;learn -->
<g id="edge1" class="edge"><title>START&#45;&gt;learn</title>
<path fill="none" stroke="black" d="M54.0327,-74C69.3002,-74 88.8655,-74 105.849,-74"/>
<polygon fill="black" stroke="black" points="106.028,-77.5001 116.028,-74 106.028,-70.5001 106.028,-77.5001"/>
<text text-anchor="middle" x="85" y="-77.8" font-family="Times,serif" font-size="14.00">train</text>
</g>
<!-- predict -->
<g id="node3" class="node"><title>predict</title>
<ellipse fill="none" stroke="black" cx="282" cy="-62" rx="35.9954" ry="18"/>
<text text-anchor="middle" x="282" y="-58.3" font-family="Times,serif" font-size="14.00">predict</text>
</g>
<!-- learn&#45;&gt;predict -->
<g id="edge2" class="edge"><title>learn&#45;&gt;predict</title>
<path fill="none" stroke="black" d="M173.645,-71.5427C191.727,-69.9354 215.753,-67.7997 236.491,-65.9564"/>
<polygon fill="black" stroke="black" points="237.025,-69.4228 246.676,-65.051 236.405,-62.4503 237.025,-69.4228"/>
<text text-anchor="middle" x="210" y="-73.8" font-family="Times,serif" font-size="14.00">model</text>
</g>
<!-- eval -->
<g id="node5" class="node"><title>eval</title>
<ellipse fill="none" stroke="black" cx="413" cy="-35" rx="27" ry="18"/>
<text text-anchor="middle" x="413" y="-31.3" font-family="Times,serif" font-size="14.00">eval</text>
</g>
<!-- predict&#45;&gt;eval -->
<g id="edge4" class="edge"><title>predict&#45;&gt;eval</title>
<path fill="none" stroke="black" d="M315.219,-55.2564C334.07,-51.3109 357.877,-46.328 377.162,-42.2916"/>
<polygon fill="black" stroke="black" points="377.996,-45.6931 387.067,-40.2186 376.562,-38.8416 377.996,-45.6931"/>
<text text-anchor="middle" x="352" y="-54.8" font-family="Times,serif" font-size="14.00">preds</text>
</g>
<!-- test -->
<g id="node4" class="node"><title>test</title>
<text text-anchor="middle" x="145" y="-14.3" font-family="Times,serif" font-size="14.00">test</text>
</g>
<!-- test&#45;&gt;predict -->
<g id="edge3" class="edge"><title>test&#45;&gt;predict</title>
<path fill="none" stroke="black" d="M172.029,-26.4836C191.785,-32.9226 219.28,-41.8837 241.708,-49.1936"/>
<polygon fill="black" stroke="black" points="240.698,-52.5456 251.29,-52.3168 242.867,-45.8902 240.698,-52.5456"/>
</g>
<!-- test&#45;&gt;eval -->
<g id="edge5" class="edge"><title>test&#45;&gt;eval</title>
<path fill="none" stroke="black" d="M172.478,-19.6922C220.401,-22.7549 321.575,-29.2209 375.827,-32.6882"/>
<polygon fill="black" stroke="black" points="375.819,-36.1947 386.022,-33.3397 376.265,-29.209 375.819,-36.1947"/>
</g>
<!-- STOP -->
<g id="node6" class="node"><title>STOP</title>
</g>
<!-- eval&#45;&gt;STOP -->
<g id="edge6" class="edge"><title>eval&#45;&gt;STOP</title>
<path fill="none" stroke="black" d="M440.297,-35C458.135,-35 481.953,-35 501.607,-35"/>
<polygon fill="black" stroke="black" points="501.741,-38.5001 511.741,-35 501.741,-31.5001 501.741,-38.5001"/>
<text text-anchor="middle" x="476" y="-38.8" font-family="Times,serif" font-size="14.00">scores</text>
</g>
</g>
</svg>
