<?xml version="1.0" encoding="UTF-8" standalone="no"?>
<!DOCTYPE svg PUBLIC "-//W3C//DTD SVG 1.1//EN"
 "http://www.w3.org/Graphics/SVG/1.1/DTD/svg11.dtd">
<!-- Generated by graphviz version 2.29.20121221.0545 (20121221.0545)
 -->
<!-- Title: G Pages: 1 -->
<svg width="574pt" height="129pt"
 viewBox="0.00 0.00 574.00 129.00" xmlns="http://www.w3.org/2000/svg" xmlns:xlink="http://www.w3.org/1999/xlink">
<g id="graph0" class="graph" transform="scale(1 1) rotate(0) translate(4 125)">
<title>G</title>
<polygon fill="white" stroke="white" points="-4,5 -4,-125 571,-125 571,5 -4,5"/>
<!-- START -->
<g id="node1" class="node"><title>START</title>
</g>
<!-- learn -->
<g id="node2" class="node"><title>learn</title>
<ellipse fill="none" stroke="black" cx="145" cy="-103" rx="28.6953" ry="18"/>
<text text-anchor="middle" x="145" y="-99.3" font-family="Times,serif" font-size="14.00">learn</text>
</g>
<!-- START&#45;&gt;learn -->
<g id="edge1" class="edge"><title>START&#45;&gt;learn</title>
<path fill="none" stroke="black" d="M54.0327,-103C69.3002,-103 88.8655,-103 105.849,-103"/>
<polygon fill="black" stroke="black" points="106.028,-106.5 116.028,-103 106.028,-99.5001 106.028,-106.5"/>
<text text-anchor="middle" x="85" y="-106.8" font-family="Times,serif" font-size="14.00">train</text>
</g>
<!-- predict -->
<g id="node3" class="node"><title>predict</title>
<ellipse fill="none" stroke="black" cx="282" cy="-72" rx="35.9954" ry="18"/>
<text text-anchor="middle" x="282" y="-68.3" font-family="Times,serif" font-size="14.00">predict</text>
</g>
<!-- learn&#45;&gt;predict -->
<g id="edge2" class="edge"><title>learn&#45;&gt;predict</title>
<path fill="none" stroke="black" d="M172.029,-97.0229C190.947,-92.6789 216.959,-86.7057 238.825,-81.6846"/>
<polygon fill="black" stroke="black" points="239.894,-85.0303 248.857,-79.381 238.327,-78.2079 239.894,-85.0303"/>
<text text-anchor="middle" x="210" y="-96.8" font-family="Times,serif" font-size="14.00">model</text>
</g>
<!-- eval -->
<g id="node5" class="node"><title>eval</title>
<ellipse fill="none" stroke="black" cx="413" cy="-41" rx="27" ry="18"/>
<text text-anchor="middle" x="413" y="-37.3" font-family="Times,serif" font-size="14.00">eval</text>
</g>
<!-- predict&#45;&gt;eval -->
<g id="edge4" class="edge"><title>predict&#45;&gt;eval</title>
<path fill="none" stroke="black" d="M314.557,-64.4165C333.612,-59.8373 357.912,-53.9979 377.478,-49.296"/>
<polygon fill="black" stroke="black" points="378.32,-52.6934 387.225,-46.9536 376.684,-45.8871 378.32,-52.6934"/>
<text text-anchor="middle" x="352" y="-62.8" font-family="Times,serif" font-size="14.00">preds</text>
</g>
<!-- predict0 -->
<g id="node4" class="node"><title>predict0</title>
</g>
<!-- predict0&#45;&gt;predict -->
<g id="edge3" class="edge"><title>predict0&#45;&gt;predict</title>
<path fill="none" stroke="black" d="M172.366,-50.8894C188.515,-52.295 209.555,-54.5713 228,-58 232.158,-58.7729 236.469,-59.6993 240.756,-60.7026"/>
<polygon fill="black" stroke="black" points="240.079,-64.1408 250.627,-63.1473 241.762,-57.346 240.079,-64.1408"/>
<text text-anchor="middle" x="210" y="-61.8" font-family="Times,serif" font-size="14.00">test</text>
</g>
<!-- STOP -->
<g id="node7" class="node"><title>STOP</title>
</g>
<!-- eval&#45;&gt;STOP -->
<g id="edge6" class="edge"><title>eval&#45;&gt;STOP</title>
<path fill="none" stroke="black" d="M440.297,-41C458.135,-41 481.953,-41 501.607,-41"/>
<polygon fill="black" stroke="black" points="501.741,-44.5001 511.741,-41 501.741,-37.5001 501.741,-44.5001"/>
<text text-anchor="middle" x="476" y="-44.8" font-family="Times,serif" font-size="14.00">scores</text>
</g>
<!-- eval0 -->
<g id="node6" class="node"><title>eval0</title>
</g>
<!-- eval0&#45;&gt;eval -->
<g id="edge5" class="edge"><title>eval0&#45;&gt;eval</title>
<path fill="none" stroke="black" d="M309.254,-19.4024C326.162,-20.6431 348.539,-22.9176 368,-27 371.668,-27.7694 375.463,-28.7246 379.218,-29.7722"/>
<polygon fill="black" stroke="black" points="378.359,-33.1688 388.943,-32.6967 380.375,-26.4653 378.359,-33.1688"/>
<text text-anchor="middle" x="352" y="-30.8" font-family="Times,serif" font-size="14.00">test</text>
</g>
</g>
</svg>
