<?xml version="1.0" encoding="UTF-8" standalone="no"?>
<!DOCTYPE svg PUBLIC "-//W3C//DTD SVG 1.1//EN"
 "http://www.w3.org/Graphics/SVG/1.1/DTD/svg11.dtd">
<!-- Generated by graphviz version 2.29.20121221.0545 (20121221.0545)
 -->
<!-- Title: G Pages: 1 -->
<svg width="952pt" height="281pt"
 viewBox="0.00 0.00 952.00 280.73" xmlns="http://www.w3.org/2000/svg" xmlns:xlink="http://www.w3.org/1999/xlink">
<g id="graph0" class="graph" transform="scale(1 1) rotate(0) translate(4 276.733)">
<title>G</title>
<polygon fill="white" stroke="white" points="-4,5 -4,-276.733 949,-276.733 949,5 -4,5"/>
<!-- START -->
<g id="node1" class="node"><title>START</title>
</g>
<!-- learn -->
<g id="node2" class="node"><title>learn</title>
<ellipse fill="none" stroke="black" cx="145" cy="-135.361" rx="28.6953" ry="18"/>
<text text-anchor="middle" x="145" y="-131.661" font-family="Times,serif" font-size="14.00">learn</text>
</g>
<!-- START&#45;&gt;learn -->
<g id="edge1" class="edge"><title>START&#45;&gt;learn</title>
<path fill="none" stroke="black" d="M54.0327,-135.361C69.3002,-135.361 88.8655,-135.361 105.849,-135.361"/>
<polygon fill="black" stroke="black" points="106.028,-138.861 116.028,-135.361 106.028,-131.861 106.028,-138.861"/>
<text text-anchor="middle" x="85" y="-139.161" font-family="Times,serif" font-size="14.00">train</text>
</g>
<!-- model -->
<g id="node3" class="node"><title>model</title>
</g>
<!-- learn&#45;&gt;model -->
<g id="edge6" class="edge"><title>learn&#45;&gt;model</title>
<path fill="none" stroke="black" d="M173.856,-135.361C202.52,-135.361 243.353,-135.361 245.877,-135.361"/>
<text text-anchor="middle" x="210" y="-139.161" font-family="Times,serif" font-size="14.00">model</text>
</g>
<!-- test -->
<g id="node14" class="node"><title>test</title>
<text text-anchor="middle" x="313" y="-198.661" font-family="Times,serif" font-size="14.00">test</text>
</g>
<!-- model&#45;&gt;test -->
<g id="edge2" class="edge"><title>model&#45;&gt;test</title>
<path fill="none" stroke="none" d="M248.02,-135.42C248.443,-136.628 255.367,-156.159 266,-168.361 269.588,-172.479 273.758,-176.396 278.094,-180.01"/>
<polygon fill="none" stroke="none" points="275.949,-182.776 285.988,-186.164 280.253,-177.255 275.949,-182.776"/>
</g>
<!-- testpredict -->
<g id="node6" class="node"><title>testpredict</title>
<ellipse fill="none" stroke="black" stroke-width="2" cx="446" cy="-225.361" rx="66.8882" ry="18"/>
<text text-anchor="middle" x="446" y="-221.661" font-family="Times,serif" font-size="14.00">predict(in=test)</text>
</g>
<!-- model&#45;&gt;testpredict -->
<g id="edge3" class="edge"><title>model&#45;&gt;testpredict</title>
<path fill="none" stroke="black" stroke-width="2" d="M248.149,-135.423C251.203,-136.703 300.69,-157.462 340,-175.361 361.002,-184.924 384.181,-195.914 403.407,-205.152"/>
<polygon fill="black" stroke="black" points="401.972,-208.345 412.5,-209.531 405.009,-202.039 401.972,-208.345"/>
</g>
<!-- devpredict -->
<g id="node7" class="node"><title>devpredict</title>
<ellipse fill="none" stroke="black" stroke-dasharray="5,2" cx="446" cy="-45.3608" rx="67.6881" ry="18"/>
<text text-anchor="middle" x="446" y="-41.6608" font-family="Times,serif" font-size="14.00">predict(in=dev)</text>
</g>
<!-- model&#45;&gt;devpredict -->
<g id="edge4" class="edge"><title>model&#45;&gt;devpredict</title>
<path fill="none" stroke="black" stroke-dasharray="5,2" d="M248.143,-135.296C252.282,-133.405 345.436,-90.847 402.096,-64.9617"/>
<polygon fill="black" stroke="black" points="403.556,-68.1425 411.198,-60.8035 400.647,-61.7755 403.556,-68.1425"/>
</g>
<!-- dev -->
<g id="node13" class="node"><title>dev</title>
<text text-anchor="middle" x="313" y="-58.6608" font-family="Times,serif" font-size="14.00">dev</text>
</g>
<!-- model&#45;&gt;dev -->
<g id="edge5" class="edge"><title>model&#45;&gt;dev</title>
<path fill="none" stroke="none" d="M248.022,-135.303C248.474,-134.119 255.859,-114.974 266,-102.361 270.277,-97.041 275.319,-91.8626 280.469,-87.0922"/>
<polygon fill="none" stroke="none" points="282.838,-89.6697 288.015,-80.4258 278.204,-84.4236 282.838,-89.6697"/>
</g>
<!-- testpreds -->
<g id="node4" class="node"><title>testpreds</title>
</g>
<!-- eval1 -->
<g id="node9" class="node"><title>eval1</title>
<ellipse fill="none" stroke="red" stroke-width="2" cx="720" cy="-245.361" rx="92.0841" ry="18"/>
<text text-anchor="middle" x="720" y="-241.661" font-family="Times,serif" font-size="14.00" fill="red">eval(gold=test, T=0.5)</text>
</g>
<!-- testpreds&#45;&gt;eval1 -->
<g id="edge8" class="edge"><title>testpreds&#45;&gt;eval1</title>
<path fill="none" stroke="red" stroke-width="2" d="M584.098,-225.375C585.79,-225.626 609.203,-229.095 636.062,-233.074"/>
<polygon fill="red" stroke="red" points="635.674,-236.554 646.079,-234.558 636.7,-229.63 635.674,-236.554"/>
</g>
<!-- eval2 -->
<g id="node10" class="node"><title>eval2</title>
<ellipse fill="none" stroke="blue" stroke-width="2" cx="720" cy="-185.361" rx="96.6831" ry="18"/>
<text text-anchor="middle" x="720" y="-181.661" font-family="Times,serif" font-size="14.00" fill="blue">eval(gold=test, T=0.75)</text>
</g>
<!-- testpreds&#45;&gt;eval2 -->
<g id="edge9" class="edge"><title>testpreds&#45;&gt;eval2</title>
<path fill="none" stroke="blue" stroke-width="2" d="M584.098,-225.332C586.243,-224.696 623.301,-213.716 658.031,-203.426"/>
<polygon fill="blue" stroke="blue" points="659.14,-206.748 667.734,-200.551 657.151,-200.036 659.14,-206.748"/>
</g>
<!-- devpreds -->
<g id="node5" class="node"><title>devpreds</title>
</g>
<!-- eval3 -->
<g id="node11" class="node"><title>eval3</title>
<ellipse fill="none" stroke="red" stroke-dasharray="5,2" cx="720" cy="-85.3608" rx="92.8835" ry="18"/>
<text text-anchor="middle" x="720" y="-81.6608" font-family="Times,serif" font-size="14.00" fill="red">eval(gold=dev, T=0.5)</text>
</g>
<!-- devpreds&#45;&gt;eval3 -->
<g id="edge11" class="edge"><title>devpreds&#45;&gt;eval3</title>
<path fill="none" stroke="red" stroke-dasharray="5,2" d="M584.098,-45.3898C586.251,-46.0277 623.554,-57.0803 658.385,-67.4008"/>
<polygon fill="red" stroke="red" points="657.53,-70.7979 668.113,-70.283 659.519,-64.0863 657.53,-70.7979"/>
</g>
<!-- eval4 -->
<g id="node12" class="node"><title>eval4</title>
<ellipse fill="none" stroke="blue" stroke-dasharray="5,2" cx="720" cy="-25.3608" rx="97.4827" ry="18"/>
<text text-anchor="middle" x="720" y="-21.6608" font-family="Times,serif" font-size="14.00" fill="blue">eval(gold=dev, T=0.75)</text>
</g>
<!-- devpreds&#45;&gt;eval4 -->
<g id="edge12" class="edge"><title>devpreds&#45;&gt;eval4</title>
<path fill="none" stroke="blue" stroke-dasharray="5,2" d="M584.098,-45.3463C585.733,-45.104 607.651,-41.8569 633.361,-38.048"/>
<polygon fill="blue" stroke="blue" points="633.987,-41.4935 643.366,-36.5658 632.961,-34.5691 633.987,-41.4935"/>
</g>
<!-- testpredict&#45;&gt;testpreds -->
<g id="edge7" class="edge"><title>testpredict&#45;&gt;testpreds</title>
<path fill="none" stroke="black" stroke-width="2" d="M513.314,-225.361C536.052,-225.361 558.97,-225.361 571.742,-225.361"/>
<polygon fill="black" stroke="black" points="571.9,-228.861 581.9,-225.361 571.9,-221.861 571.9,-228.861"/>
<text text-anchor="middle" x="548" y="-229.161" font-family="Times,serif" font-size="14.00">preds</text>
</g>
<!-- devpredict&#45;&gt;devpreds -->
<g id="edge10" class="edge"><title>devpredict&#45;&gt;devpreds</title>
<path fill="none" stroke="black" stroke-dasharray="5,2" d="M513.709,-45.3608C536.361,-45.3608 559.132,-45.3608 571.816,-45.3608"/>
<polygon fill="black" stroke="black" points="571.901,-48.8609 581.901,-45.3608 571.901,-41.8609 571.901,-48.8609"/>
<text text-anchor="middle" x="548" y="-49.1608" font-family="Times,serif" font-size="14.00">preds</text>
</g>
<!-- preds -->
<g id="node8" class="node"><title>preds</title>
</g>
<!-- STOP1 -->
<g id="node15" class="node"><title>STOP1</title>
</g>
<!-- eval1&#45;&gt;STOP1 -->
<g id="edge19" class="edge"><title>eval1&#45;&gt;STOP1</title>
<path fill="none" stroke="red" stroke-width="2" d="M812.505,-245.361C836.384,-245.361 860.744,-245.361 879.827,-245.361"/>
<polygon fill="red" stroke="red" points="879.849,-248.861 889.849,-245.361 879.849,-241.861 879.849,-248.861"/>
<text text-anchor="middle" x="854" y="-249.161" font-family="Times,serif" font-size="14.00" fill="red">scores</text>
</g>
<!-- STOP2 -->
<g id="node16" class="node"><title>STOP2</title>
</g>
<!-- eval2&#45;&gt;STOP2 -->
<g id="edge20" class="edge"><title>eval2&#45;&gt;STOP2</title>
<path fill="none" stroke="blue" stroke-width="2" d="M817.072,-185.361C839.308,-185.361 861.644,-185.361 879.451,-185.361"/>
<polygon fill="blue" stroke="blue" points="879.644,-188.861 889.644,-185.361 879.644,-181.861 879.644,-188.861"/>
<text text-anchor="middle" x="854" y="-189.161" font-family="Times,serif" font-size="14.00" fill="blue">scores</text>
</g>
<!-- STOP3 -->
<g id="node17" class="node"><title>STOP3</title>
</g>
<!-- eval3&#45;&gt;STOP3 -->
<g id="edge21" class="edge"><title>eval3&#45;&gt;STOP3</title>
<path fill="none" stroke="red" stroke-dasharray="5,2" d="M813.075,-85.3608C836.596,-85.3608 860.539,-85.3608 879.406,-85.3608"/>
<polygon fill="red" stroke="red" points="879.608,-88.8609 889.608,-85.3608 879.608,-81.8609 879.608,-88.8609"/>
<text text-anchor="middle" x="854" y="-89.1608" font-family="Times,serif" font-size="14.00" fill="red">scores</text>
</g>
<!-- STOP4 -->
<g id="node18" class="node"><title>STOP4</title>
</g>
<!-- eval4&#45;&gt;STOP4 -->
<g id="edge22" class="edge"><title>eval4&#45;&gt;STOP4</title>
<path fill="none" stroke="blue" stroke-dasharray="5,2" d="M817.643,-25.3608C839.691,-25.3608 861.797,-25.3608 879.452,-25.3608"/>
<polygon fill="blue" stroke="blue" points="879.829,-28.8609 889.829,-25.3608 879.829,-21.8609 879.829,-28.8609"/>
<text text-anchor="middle" x="854" y="-29.1608" font-family="Times,serif" font-size="14.00" fill="blue">scores</text>
</g>
<!-- dev&#45;&gt;eval3 -->
<g id="edge16" class="edge"><title>dev&#45;&gt;eval3</title>
<path fill="none" stroke="red" stroke-dasharray="5,2" d="M340.416,-68.4413C346.184,-69.5789 352.276,-70.6365 358,-71.3608 366.83,-72.478 369.109,-71.969 378,-72.3608 458.645,-75.914 550.045,-79.3676 617.906,-81.821"/>
<polygon fill="red" stroke="red" points="618.046,-85.3282 628.166,-82.1908 618.298,-78.3328 618.046,-85.3282"/>
</g>
<!-- dev&#45;&gt;devpredict -->
<g id="edge17" class="edge"><title>dev&#45;&gt;devpredict</title>
<path fill="none" stroke="black" stroke-dasharray="5,2" d="M340.195,-58.9614C350.387,-57.6387 362.595,-56.0546 375.019,-54.4423"/>
<polygon fill="black" stroke="black" points="375.528,-57.9057 384.994,-53.1478 374.627,-50.9639 375.528,-57.9057"/>
</g>
<!-- dev&#45;&gt;eval4 -->
<g id="edge18" class="edge"><title>dev&#45;&gt;eval4</title>
<path fill="none" stroke="blue" stroke-dasharray="5,2" d="M333.638,-44.2002C345.518,-34.48 361.518,-23.48 378,-18.3608 466.259,9.05144 573.648,0.437279 644.036,-10.4641"/>
<polygon fill="blue" stroke="blue" points="643.718,-13.9577 654.146,-12.0851 644.826,-7.04601 643.718,-13.9577"/>
</g>
<!-- test&#45;&gt;eval1 -->
<g id="edge13" class="edge"><title>test&#45;&gt;eval1</title>
<path fill="none" stroke="red" stroke-width="2" d="M330.531,-220.399C342.442,-231.992 359.602,-246.026 378,-252.361 467.384,-283.137 577.902,-272.805 648.432,-260.668"/>
<polygon fill="red" stroke="red" points="649.309,-264.067 658.541,-258.869 648.082,-257.176 649.309,-264.067"/>
</g>
<!-- test&#45;&gt;testpredict -->
<g id="edge14" class="edge"><title>test&#45;&gt;testpredict</title>
<path fill="none" stroke="black" stroke-width="2" d="M340.195,-206.96C351.611,-208.964 365.554,-211.412 379.498,-213.86"/>
<polygon fill="black" stroke="black" points="379.16,-217.355 389.615,-215.637 380.371,-210.46 379.16,-217.355"/>
</g>
<!-- test&#45;&gt;eval2 -->
<g id="edge15" class="edge"><title>test&#45;&gt;eval2</title>
<path fill="none" stroke="blue" stroke-width="2" d="M340.148,-200.582C351.74,-199.831 365.547,-198.987 378,-198.361 457.074,-194.383 546.518,-191.016 613.956,-188.705"/>
<polygon fill="blue" stroke="blue" points="614.288,-192.196 624.163,-188.358 614.05,-185.2 614.288,-192.196"/>
</g>
</g>
</svg>
