<?xml version="1.0" encoding="UTF-8" standalone="no"?>
<!DOCTYPE svg PUBLIC "-//W3C//DTD SVG 1.1//EN"
 "http://www.w3.org/Graphics/SVG/1.1/DTD/svg11.dtd">
<!-- Generated by graphviz version 2.29.20121221.0545 (20121221.0545)
 -->
<!-- Title: G Pages: 1 -->
<svg width="740pt" height="267pt"
 viewBox="0.00 0.00 740.00 267.00" xmlns="http://www.w3.org/2000/svg" xmlns:xlink="http://www.w3.org/1999/xlink">
<g id="graph0" class="graph" transform="scale(1 1) rotate(0) translate(4 263)">
<title>G</title>
<polygon fill="white" stroke="white" points="-4,5 -4,-263 737,-263 737,5 -4,5"/>
<!-- DUMMYTOPLEFT -->
<g id="node1" class="node"><title>DUMMYTOPLEFT</title>
</g>
<!-- t2x -->
<g id="node6" class="node"><title>t2x</title>
<ellipse fill="none" stroke="black" stroke-width="2" cx="293" cy="-241" rx="54.6905" ry="18"/>
<text text-anchor="middle" x="293" y="-237.3" font-family="Times,serif" font-size="14.00">t2/BL(Q=x)</text>
</g>
<!-- DUMMYTOPLEFT&#45;&gt;t2x -->
<!-- t2xOUT -->
<g id="node14" class="node"><title>t2xOUT</title>
</g>
<!-- DUMMYTOPLEFT&#45;&gt;t2xOUT -->
<!-- START -->
<g id="node2" class="node"><title>START</title>
</g>
<!-- START&#45;&gt;DUMMYTOPLEFT -->
<!-- t1a -->
<g id="node4" class="node"><title>t1a</title>
<ellipse fill="none" stroke="red" cx="146" cy="-123" rx="53.8905" ry="18"/>
<text text-anchor="middle" x="146" y="-119.3" font-family="Times,serif" font-size="14.00" fill="red">t1/BL(in=a)</text>
</g>
<!-- START&#45;&gt;t1a -->
<!-- t1b -->
<g id="node5" class="node"><title>t1b</title>
<ellipse fill="none" stroke="blue" cx="146" cy="-58" rx="55.7903" ry="18"/>
<text text-anchor="middle" x="146" y="-54.3" font-family="Times,serif" font-size="14.00" fill="blue">t1/B.b(in=b)</text>
</g>
<!-- START&#45;&gt;t1b -->
<!-- STOP -->
<g id="node3" class="node"><title>STOP</title>
</g>
<!-- t1a&#45;&gt;t2x -->
<g id="edge6" class="edge"><title>t1a&#45;&gt;t2x</title>
<path fill="none" stroke="red" d="M190,-134C190,-134 207.162,-186.713 238,-215 240.935,-217.693 244.2,-220.161 247.631,-222.413"/>
<polygon fill="red" stroke="red" points="246.009,-225.52 256.405,-227.566 249.555,-219.484 246.009,-225.52"/>
<text text-anchor="middle" x="236.494" y="-223.174" font-family="Times,serif" font-size="10.00" fill="red">in</text>
</g>
<!-- t2y -->
<g id="node7" class="node"><title>t2y</title>
<ellipse fill="none" stroke="black" stroke-dasharray="5,2" cx="440" cy="-241" rx="55.7903" ry="18"/>
<text text-anchor="middle" x="440" y="-237.3" font-family="Times,serif" font-size="14.00">t2/X.y(Q=y)</text>
</g>
<!-- t1a&#45;&gt;t2y -->
<g id="edge7" class="edge"><title>t1a&#45;&gt;t2y</title>
<path fill="none" stroke="red" d="M190,-134C190,-134 277.974,-170.764 348,-201 364.007,-207.912 381.553,-215.598 396.93,-222.371"/>
<polygon fill="red" stroke="red" points="395.629,-225.622 406.191,-226.455 398.453,-219.217 395.629,-225.622"/>
<text text-anchor="middle" x="386.195" y="-224.375" font-family="Times,serif" font-size="10.00" fill="red">in</text>
</g>
<!-- t3ax -->
<g id="node8" class="node"><title>t3ax</title>
<ellipse fill="none" stroke="black" cx="293" cy="-123" rx="31.6951" ry="18"/>
<text text-anchor="middle" x="293" y="-119.3" font-family="Times,serif" font-size="14.00">t3/BL</text>
</g>
<!-- t1a&#45;&gt;t3ax -->
<g id="edge8" class="edge"><title>t1a&#45;&gt;t3ax</title>
<path fill="none" stroke="red" d="M190,-134C190,-134 223.002,-130.441 251.463,-127.372"/>
<polygon fill="red" stroke="red" points="252.106,-130.823 261.673,-126.271 251.355,-123.863 252.106,-130.823"/>
<text text-anchor="middle" x="244.557" y="-134.118" font-family="Times,serif" font-size="10.00" fill="red">in1</text>
</g>
<!-- t3ay -->
<g id="node9" class="node"><title>t3ay</title>
<ellipse fill="none" stroke="black" cx="440" cy="-115" rx="33.5952" ry="18"/>
<text text-anchor="middle" x="440" y="-111.3" font-family="Times,serif" font-size="14.00">t3/X.y</text>
</g>
<!-- t1a&#45;&gt;t3ay -->
<g id="edge9" class="edge"><title>t1a&#45;&gt;t3ay</title>
<path fill="none" stroke="red" d="M190,-134C190,-134 212.702,-106.433 238,-98 292.633,-79.7891 360.014,-91.9881 401.224,-103.044"/>
<polygon fill="red" stroke="red" points="400.289,-106.416 410.862,-105.737 402.173,-99.6746 400.289,-106.416"/>
<text text-anchor="middle" x="391.129" y="-106.499" font-family="Times,serif" font-size="10.00" fill="red">in1</text>
</g>
<!-- t3bx -->
<g id="node10" class="node"><title>t3bx</title>
<ellipse fill="none" stroke="black" cx="293" cy="-43" rx="33.2948" ry="18"/>
<text text-anchor="middle" x="293" y="-39.3" font-family="Times,serif" font-size="14.00">t3/B.b</text>
</g>
<!-- t1b&#45;&gt;t3bx -->
<g id="edge11" class="edge"><title>t1b&#45;&gt;t3bx</title>
<path fill="none" stroke="blue" d="M201,-54C201,-54 226.377,-50.9325 250.328,-48.0372"/>
<polygon fill="blue" stroke="blue" points="250.92,-51.4912 260.428,-46.8164 250.08,-44.5418 250.92,-51.4912"/>
<text text-anchor="middle" x="243.447" y="-54.8829" font-family="Times,serif" font-size="10.00" fill="blue">in1</text>
</g>
<!-- t3by -->
<g id="node11" class="node"><title>t3by</title>
<ellipse fill="none" stroke="black" cx="440" cy="-43" rx="51.9908" ry="18"/>
<text text-anchor="middle" x="440" y="-39.3" font-family="Times,serif" font-size="14.00">t3/B.b+X.y</text>
</g>
<!-- t1b&#45;&gt;t3by -->
<g id="edge12" class="edge"><title>t1b&#45;&gt;t3by</title>
<path fill="none" stroke="blue" d="M201,-54C201,-54 216.743,-26.6348 238,-18 289.727,3.01203 354.606,-11.6555 396.427,-25.8279"/>
<polygon fill="blue" stroke="blue" points="395.427,-29.1865 406.022,-29.2083 397.753,-22.5842 395.427,-29.1865"/>
<text text-anchor="middle" x="386.117" y="-28.6572" font-family="Times,serif" font-size="10.00" fill="blue">in1</text>
</g>
<!-- t2x&#45;&gt;t2y -->
<!-- t2x&#45;&gt;t2xOUT -->
<g id="edge14" class="edge"><title>t2x&#45;&gt;t2xOUT</title>
<path fill="none" stroke="black" stroke-width="2" d="M293,-222.838C293,-217.978 293,-213.118 293,-208.258"/>
</g>
<!-- t2yOUT -->
<g id="node15" class="node"><title>t2yOUT</title>
</g>
<!-- t2y&#45;&gt;t2yOUT -->
<g id="edge18" class="edge"><title>t2y&#45;&gt;t2yOUT</title>
<path fill="none" stroke="black" stroke-dasharray="5,2" d="M440,-222.838C440,-217.978 440,-213.118 440,-208.258"/>
</g>
<!-- t3ax&#45;&gt;t3ay -->
<!-- t3bx&#45;&gt;t3by -->
<!-- t4a -->
<g id="node12" class="node"><title>t4a</title>
<ellipse fill="none" stroke="black" cx="587" cy="-68" rx="53.8905" ry="18"/>
<text text-anchor="middle" x="587" y="-64.3" font-family="Times,serif" font-size="14.00">t4/BL(Q=a)</text>
</g>
<!-- t3by&#45;&gt;t4a -->
<g id="edge22" class="edge"><title>t3by&#45;&gt;t4a</title>
<path fill="none" stroke="black" d="M493,-43C493,-43 513.03,-48.3843 534.498,-54.1553"/>
<polygon fill="black" stroke="black" points="533.83,-57.6001 544.396,-56.8162 535.648,-50.8401 533.83,-57.6001"/>
<text text-anchor="middle" x="546.992" y="-44.659" font-family="Times,serif" font-size="10.00">in1</text>
</g>
<!-- t4b -->
<g id="node13" class="node"><title>t4b</title>
<ellipse fill="none" stroke="black" cx="587" cy="-18" rx="55.4913" ry="18"/>
<text text-anchor="middle" x="587" y="-14.3" font-family="Times,serif" font-size="14.00">t4/B.b(Q=b)</text>
</g>
<!-- t3by&#45;&gt;t4b -->
<g id="edge23" class="edge"><title>t3by&#45;&gt;t4b</title>
<path fill="none" stroke="black" d="M493,-43C493,-43 512.738,-37.694 534.028,-31.971"/>
<polygon fill="black" stroke="black" points="535.105,-35.3057 543.854,-29.3297 533.288,-28.5457 535.105,-35.3057"/>
<text text-anchor="middle" x="524.531" y="-21.6689" font-family="Times,serif" font-size="10.00">in1</text>
</g>
<!-- t4a&#45;&gt;STOP -->
<!-- t4b&#45;&gt;STOP -->
<!-- t2xOUT&#45;&gt;t3bx -->
<g id="edge16" class="edge"><title>t2xOUT&#45;&gt;t3bx</title>
<path fill="none" stroke="black" stroke-width="2" d="M292.394,-208.02C286.439,-208.183 238.23,-208.65 220,-182 200.678,-153.754 205.63,-136.059 220,-105 228.405,-86.8345 245.046,-72.0441 260.319,-61.4711"/>
<polygon fill="black" stroke="black" points="262.629,-64.1428 269.082,-55.7396 258.797,-58.2847 262.629,-64.1428"/>
<text text-anchor="middle" x="258.539" y="-70.2355" font-family="Times,serif" font-size="10.00">in2</text>
</g>
<!-- t2xOUT&#45;&gt;t3ax -->
<g id="edge17" class="edge"><title>t2xOUT&#45;&gt;t3ax</title>
<path fill="none" stroke="black" stroke-width="2" d="M293,-207.739C293,-188.956 293,-170.173 293,-151.389"/>
<polygon fill="black" stroke="black" points="296.5,-151.262 293,-141.262 289.5,-151.262 296.5,-151.262"/>
<text text-anchor="middle" x="301.452" y="-156.888" font-family="Times,serif" font-size="10.00">in2</text>
</g>
<!-- t2xOUT&#45;&gt;t2yOUT -->
<!-- t2xOUT&#45;&gt;t4a -->
<g id="edge24" class="edge"><title>t2xOUT&#45;&gt;t4a</title>
<path fill="none" stroke="black" stroke-width="2" d="M294.118,-207.986C299.037,-207.394 456.754,-188.287 496,-166 526.856,-148.478 553.086,-116.699 569.133,-94.0817"/>
<polygon fill="black" stroke="black" points="572.176,-95.8333 574.972,-85.6138 566.414,-91.8596 572.176,-95.8333"/>
<text text-anchor="middle" x="571.641" y="-102.834" font-family="Times,serif" font-size="10.00">in2</text>
</g>
<!-- t2xOUT&#45;&gt;t4b -->
<g id="edge25" class="edge"><title>t2xOUT&#45;&gt;t4b</title>
<path fill="none" stroke="black" stroke-width="2" d="M294.14,-207.923C297.021,-206.345 343.744,-180.879 384,-167 432.407,-150.31 457.708,-173.993 496,-140 530.389,-109.472 500.78,-76.7622 532,-43 534.244,-40.5728 536.772,-38.3617 539.476,-36.3507"/>
<polygon fill="black" stroke="black" points="541.466,-39.2324 548.013,-30.9019 537.7,-33.3318 541.466,-39.2324"/>
<text text-anchor="middle" x="553.393" y="-36.8312" font-family="Times,serif" font-size="10.00">in2</text>
</g>
<!-- t2yOUT&#45;&gt;t3ay -->
<g id="edge20" class="edge"><title>t2yOUT&#45;&gt;t3ay</title>
<path fill="none" stroke="black" stroke-dasharray="5,2" d="M440,-207.708C440,-186.257 440,-164.806 440,-143.356"/>
<polygon fill="black" stroke="black" points="443.5,-143.164 440,-133.164 436.5,-143.164 443.5,-143.164"/>
<text text-anchor="middle" x="448.452" y="-148.79" font-family="Times,serif" font-size="10.00">in2</text>
</g>
<!-- t2yOUT&#45;&gt;t3by -->
<g id="edge21" class="edge"><title>t2yOUT&#45;&gt;t3by</title>
<path fill="none" stroke="black" stroke-dasharray="5,2" d="M439.38,-208.095C433.286,-208.983 383.973,-215.274 366,-189 342.914,-155.252 347.475,-133.452 366,-97 373.27,-82.6944 386.305,-71.277 399.431,-62.6934"/>
<polygon fill="black" stroke="black" points="401.295,-65.6557 408.01,-57.46 397.65,-59.6798 401.295,-65.6557"/>
<text text-anchor="middle" x="396.937" y="-71.6154" font-family="Times,serif" font-size="10.00">in2</text>
</g>
</g>
</svg>
