<?xml version="1.0" encoding="UTF-8" standalone="no"?>
<!DOCTYPE svg PUBLIC "-//W3C//DTD SVG 1.1//EN"
 "http://www.w3.org/Graphics/SVG/1.1/DTD/svg11.dtd">
<!-- Generated by graphviz version 2.29.20121221.0545 (20121221.0545)
 -->
<!-- Title: G Pages: 1 -->
<svg width="400pt" height="168pt"
 viewBox="0.00 0.00 400.00 168.00" xmlns="http://www.w3.org/2000/svg" xmlns:xlink="http://www.w3.org/1999/xlink">
<g id="graph0" class="graph" transform="scale(1 1) rotate(0) translate(4 164)">
<title>G</title>
<polygon fill="white" stroke="white" points="-4,5 -4,-164 397,-164 397,5 -4,5"/>
<text text-anchor="start" x="186.5" y="-145.8" font-family="Times,serif" font-style="italic" text-decoration="underline" font-size="14.00">vee</text>
<!-- START -->
<g id="node1" class="node"><title>START</title>
</g>
<!-- t1a -->
<g id="node3" class="node"><title>t1a</title>
<ellipse fill="none" stroke="red" cx="146" cy="-119" rx="53.8905" ry="18"/>
<text text-anchor="middle" x="146" y="-115.3" font-family="Times,serif" font-size="14.00" fill="red">t1/BL(in=a)</text>
</g>
<!-- START&#45;&gt;t1a -->
<!-- t1b -->
<g id="node4" class="node"><title>t1b</title>
<ellipse fill="none" stroke="blue" cx="146" cy="-18" rx="55.7903" ry="18"/>
<text text-anchor="middle" x="146" y="-14.3" font-family="Times,serif" font-size="14.00" fill="blue">t1/B.b(in=b)</text>
</g>
<!-- START&#45;&gt;t1b -->
<!-- STOP -->
<g id="node2" class="node"><title>STOP</title>
</g>
<!-- t2 -->
<g id="node5" class="node"><title>t2</title>
<ellipse fill="none" stroke="black" cx="270" cy="-68" rx="31.6951" ry="18"/>
<text text-anchor="middle" x="270" y="-64.3" font-family="Times,serif" font-size="14.00">t2/BL</text>
</g>
<!-- t1a&#45;&gt;t2 -->
<g id="edge4" class="edge"><title>t1a&#45;&gt;t2</title>
<path fill="none" stroke="red" d="M180.337,-105.064C197.086,-98.0623 217.366,-89.5849 234.3,-82.5057"/>
<polygon fill="red" stroke="red" points="235.956,-85.607 243.832,-78.5208 233.256,-79.1486 235.956,-85.607"/>
<text text-anchor="middle" x="218.86" y="-77.1926" font-family="Times,serif" font-size="10.00" fill="red">in1</text>
<text text-anchor="middle" x="205.31" y="-101.392" font-family="Times,serif" font-size="10.00" fill="red">out1</text>
</g>
<!-- t1b&#45;&gt;t2 -->
<g id="edge3" class="edge"><title>t1b&#45;&gt;t2</title>
<path fill="none" stroke="blue" d="M181.308,-32.0608C197.922,-38.8699 217.827,-47.0275 234.47,-53.8484"/>
<polygon fill="blue" stroke="blue" points="233.263,-57.136 243.843,-57.6897 235.917,-50.6588 233.263,-57.136"/>
<text text-anchor="middle" x="218.863" y="-54.1927" font-family="Times,serif" font-size="10.00" fill="blue">in2</text>
<text text-anchor="middle" x="206.289" y="-30.5579" font-family="Times,serif" font-size="10.00" fill="blue">out2</text>
</g>
<!-- t2&#45;&gt;STOP -->
</g>
</svg>
