<?xml version="1.0" encoding="UTF-8" standalone="no"?>
<!DOCTYPE svg PUBLIC "-//W3C//DTD SVG 1.1//EN"
 "http://www.w3.org/Graphics/SVG/1.1/DTD/svg11.dtd">
<!-- Generated by graphviz version 2.29.20121221.0545 (20121221.0545)
 -->
<!-- Title: G Pages: 1 -->
<svg width="402pt" height="204pt"
 viewBox="0.00 0.00 402.00 203.75" xmlns="http://www.w3.org/2000/svg" xmlns:xlink="http://www.w3.org/1999/xlink">
<g id="graph0" class="graph" transform="scale(1 1) rotate(0) translate(4 199.747)">
<title>G</title>
<polygon fill="white" stroke="white" points="-4,5 -4,-199.747 399,-199.747 399,5 -4,5"/>
<text text-anchor="start" x="174.5" y="-181.547" font-family="Times,serif" font-style="italic" text-decoration="underline" font-size="14.00">parallel</text>
<!-- START -->
<g id="node1" class="node"><title>START</title>
</g>
<!-- t1a -->
<g id="node3" class="node"><title>t1a</title>
<ellipse fill="none" stroke="red" cx="146" cy="-136.707" rx="53.8905" ry="18"/>
<text text-anchor="middle" x="146" y="-133.007" font-family="Times,serif" font-size="14.00" fill="red">t1/BL(in=a)</text>
</g>
<!-- START&#45;&gt;t1a -->
<!-- t1b -->
<g id="node4" class="node"><title>t1b</title>
<ellipse fill="none" stroke="blue" cx="146" cy="-35.7073" rx="55.7903" ry="18"/>
<text text-anchor="middle" x="146" y="-32.0073" font-family="Times,serif" font-size="14.00" fill="blue">t1/B.b(in=b)</text>
</g>
<!-- START&#45;&gt;t1b -->
<!-- STOP -->
<g id="node2" class="node"><title>STOP</title>
</g>
<!-- t2a -->
<g id="node5" class="node"><title>t2a</title>
<ellipse fill="none" stroke="red" cx="271" cy="-136.707" rx="31.6951" ry="18"/>
<text text-anchor="middle" x="271" y="-133.007" font-family="Times,serif" font-size="14.00" fill="red">t2/BL</text>
</g>
<!-- t1a&#45;&gt;t2a -->
<g id="edge5" class="edge"><title>t1a&#45;&gt;t2a</title>
<path fill="none" stroke="red" d="M163.588,-119.681C184.933,-111.242 222.146,-110.462 246.425,-117.341"/>
<polygon fill="red" stroke="red" points="245.359,-120.677 255.954,-120.758 247.722,-114.088 245.359,-120.677"/>
<text text-anchor="middle" x="238.735" y="-121.379" font-family="Times,serif" font-size="10.00" fill="red">in2</text>
<text text-anchor="middle" x="175.167" y="-104.06" font-family="Times,serif" font-size="10.00" fill="red">out2</text>
</g>
<!-- t1a&#45;&gt;t2a -->
<g id="edge6" class="edge"><title>t1a&#45;&gt;t2a</title>
<path fill="none" stroke="red" d="M162.578,-153.842C183.846,-162.986 222.136,-163.895 246.791,-156.571"/>
<polygon fill="red" stroke="red" points="248.316,-159.737 256.433,-152.928 245.842,-153.188 248.316,-159.737"/>
<text text-anchor="middle" x="239.164" y="-147.599" font-family="Times,serif" font-size="10.00" fill="red">in1</text>
<text text-anchor="middle" x="173.829" y="-164.747" font-family="Times,serif" font-size="10.00" fill="red">out1</text>
</g>
<!-- t2b -->
<g id="node6" class="node"><title>t2b</title>
<ellipse fill="none" stroke="blue" cx="271" cy="-35.7073" rx="33.2948" ry="18"/>
<text text-anchor="middle" x="271" y="-32.0073" font-family="Times,serif" font-size="14.00" fill="blue">t2/B.b</text>
</g>
<!-- t1b&#45;&gt;t2b -->
<g id="edge3" class="edge"><title>t1b&#45;&gt;t2b</title>
<path fill="none" stroke="blue" d="M163.845,-18.5807C185.146,-10.2689 221.953,-9.49549 246.14,-16.2604"/>
<polygon fill="blue" stroke="blue" points="245.056,-19.5895 255.651,-19.6211 247.388,-12.9894 245.056,-19.5895"/>
<text text-anchor="middle" x="238.446" y="-20.322" font-family="Times,serif" font-size="10.00" fill="blue">in2</text>
<text text-anchor="middle" x="175.47" y="-3" font-family="Times,serif" font-size="10.00" fill="blue">out2</text>
</g>
<!-- t1b&#45;&gt;t2b -->
<g id="edge4" class="edge"><title>t1b&#45;&gt;t2b</title>
<path fill="none" stroke="blue" d="M162.828,-52.9491C184.175,-62.0052 222.34,-62.8689 246.895,-55.5404"/>
<polygon fill="blue" stroke="blue" points="248.388,-58.7174 256.496,-51.898 245.905,-52.1725 248.388,-58.7174"/>
<text text-anchor="middle" x="239.222" y="-46.5924" font-family="Times,serif" font-size="10.00" fill="blue">in1</text>
<text text-anchor="middle" x="174.133" y="-63.8079" font-family="Times,serif" font-size="10.00" fill="blue">out1</text>
</g>
<!-- t2a&#45;&gt;STOP -->
<!-- t2b&#45;&gt;STOP -->
</g>
</svg>
